<?xml version="1.0" encoding="utf-8"?><!DOCTYPE svg PUBLIC "-//W3C//DTD SVG 1.1//EN" "http://www.w3.org/Graphics/SVG/1.1/DTD/svg11.dtd"><svg version="1.1" xmlns="http://www.w3.org/2000/svg" width="98" height="110" viewBox="0 0 98 110"><g fill="#843900"><g transform="scale(0.171,0.171) translate(63,63)"><path d="M 405.45 44.75 L 398.8 29.6 L 373.25 10.9 L 359.2 3.5 L 351.85 1.2 L 344.15 0 L 319.25 10.9 L 307.2 17.5 L 296 24.9 L 292.5 26.45 L 289.35 26.45 L 288.2 26.1 L 287.05 25.3 L 284.7 23.35 L 278.5 16.35 L 276.15 14.8 L 273.8 15.55 L 270.3 15.95 L 268.35 15.95 L 266.4 16.35 L 265.25 17.15 L 264.5 18.3 L 268 31.15 L 270.7 51.35 L 271.5 71.6 L 270.7 112.4 L 271.1 126.05 L 270.3 133.8 L 271.5 141.2 L 272.65 144.7 L 274.2 147.8 L 276.55 150.55 L 279.25 152.85 L 288.6 153.25 L 297.85 152.5 L 302.5 151.3 L 310.7 147.05 L 314.2 144.3 L 317.3 145.5 L 320.8 145.85 L 328.2 145.1 L 335.6 142.75 L 339.1 141.2 L 342.2 139.25 L 342.2 137.7 L 341.4 136.55 L 340.25 135.35 L 339.1 134.6 L 336.75 132.25 L 335.95 131.1 L 335.6 129.55 L 330.9 128.75 L 328.95 128.75 L 327 129.15 L 321.95 131.5 L 320.8 132.65 L 302.15 135.75 L 296 137.7 L 293.25 135.75 L 291.3 133.8 L 290.15 131.5 L 289 126.4 L 289 123.7 L 292.1 106.2 L 292.1 103.1 L 290.95 97.25 L 289.35 94.55 L 291.7 91.8 L 297.05 88.3 L 300.2 87.55 L 307.2 86.75 L 321.2 86.35 L 324.7 85.95 L 331.3 84.05 L 336.75 79.75 L 339.1 76.25 L 338.3 74.7 L 337.15 73.55 L 332.1 71.2 L 330.5 70.05 L 328.95 68.45 L 327.4 66.15 L 323.5 66.9 L 297.45 76.25 L 294.45 75.85 L 291.7 75.1 L 290.15 73.9 L 289 72.75 L 288.6 71.6 L 288.6 68.1 L 292.1 58.35 L 292.5 56.4 L 292.5 54.85 L 290.15 49.4 L 289.75 47.45 L 289.75 45.15 L 291.3 38.9 L 291.3 36.6 L 290.95 34.65 L 293.65 31.15 L 296.35 28.4 L 297.85 27.25 L 299.8 26.45 L 301.75 25.3 L 315.75 23.75 L 336.75 22.95 L 349.9 25.7 L 352.2 26.85 L 353.8 28 L 355.35 29.6 L 357.65 33.45 L 359.2 38.15 L 361.15 52.15 L 362.35 56.4 L 363.1 69.65 L 369.75 99.95 L 371.65 117.85 L 374.4 174.25 L 378.65 197.6 L 377.5 199.95 L 377.1 202.65 L 377.1 205 L 379.05 216.25 L 378.65 219.4 L 378.65 221.3 L 380.25 223.35 L 380.6 224.5 L 380.6 225.3 L 380.25 226.45 L 378.65 227.6 L 381 228.8 L 382.55 230.35 L 383.75 231.9 L 385.3 235.4 L 385.65 237.35 L 385.3 245.9 L 383.75 259.15 L 384.5 273.9 L 388 304.25 L 388 320.95 L 387.25 332.25 L 391.1 350.9 L 392.3 360.25 L 393.85 397.6 L 397.25 427.15 L 396.85 431.45 L 395.8 436.1 L 393.85 440.35 L 388.8 443.1 L 377.1 447.35 L 345.7 452.05 L 344.9 452.45 L 343.35 452.8 L 340.65 453.2 L 339.1 454 L 338.3 455.15 L 338.3 456.3 L 339.1 458.65 L 362.35 475.4 L 367 480.05 L 381.4 501.45 L 383.75 504.15 L 389.15 508.5 L 392.3 510.05 L 395.8 511.25 L 403.85 512 L 408.55 509.7 L 410.9 508.15 L 415.15 504.15 L 419.05 499.1 L 420.2 496.75 L 424.9 490.15 L 428.4 483.15 L 433.45 468 L 442 429.85 L 443.15 414.7 L 442.75 399.15 L 438.5 377 L 436.95 357.15 L 429.15 287.5 L 424.5 266.9 L 423.7 256 L 422.95 254.45 L 422.55 252.9 L 423.3 249.4 L 423.3 246.3 L 422.15 245.15 L 420.2 244.35 L 421.75 241.25 L 422.15 238.15 L 422.15 235.4 L 420.2 226.05 L 420.2 219.4 L 418.25 216.65 L 417.5 211.6 L 417.9 208.9 L 418.65 206.15 L 418.65 203.45 L 418.25 200.7 L 417.9 199.15 L 417.1 197.6 L 415.95 188.25 L 415.55 178.55 L 415.95 168.45 L 417.1 159.5 L 415.55 150.9 L 412.8 125.65 L 412.05 84.4 L 409.3 60.7 L 405.45 44.75"></path><path d="M 126.65 41.25 L 125.1 38.15 L 123.15 35.4 L 118.85 31.15 L 116.15 29.2 L 107.95 25.7 L 83.55 21.4 L 79.25 24.5 L 67.2 29.6 L 61 35.4 L 51.25 40.85 L 35 47.1 L 29.95 49.8 L 25.3 52.9 L 33.85 59.15 L 38.9 61.45 L 43.95 63 L 54.75 64.95 L 65.25 64.6 L 67.2 65.35 L 69.15 65.75 L 82.75 66.15 L 86.65 66.9 L 88.6 67.7 L 90.55 68.85 L 92.1 70.4 L 94.45 74.7 L 95.2 77.8 L 93.65 82.45 L 93.25 87.15 L 94.05 97.25 L 96 107.75 L 96.75 117.85 L 94.8 132.65 L 97.15 169.6 L 96.75 177.75 L 84.7 186.7 L 72.25 197.2 L 65.65 201.9 L 55.15 207.3 L 47.75 208.9 L 43.55 209.25 L 41.25 219.4 L 41.25 224.1 L 43.55 229.2 L 48.55 231.9 L 50.5 232.7 L 63.7 234.25 L 75 224.5 L 94.8 203.45 L 113.05 181.25 L 132.45 159.5 L 143.35 149.35 L 141.8 149.75 L 134.4 153.25 L 132.1 153.65 L 130.15 153.65 L 128.2 152.85 L 125.45 145.85 L 124.7 142 L 124.7 131.1 L 128.95 100.35 L 128.2 92.95 L 128.6 91.05 L 128.6 89.85 L 127.8 87.15 L 127.8 84.4 L 128.6 82.85 L 130.15 81.3 L 129.35 50.95 L 126.65 41.25"></path><path d="M 33.85 106.2 L 28.8 98.4 L 24.1 93.75 L 21.4 91.8 L 15.55 89.45 L 17.1 95.7 L 19.45 135 L 20.6 141.2 L 18.65 149.35 L 16.7 174.65 L 17.1 209.25 L 14 216.65 L 12.45 224.1 L 12.05 239.3 L 12.85 261.45 L 10.1 299.95 L 10.5 308.9 L 8.15 322.5 L 4.3 357.15 L 2.35 363.75 L 0.4 380.85 L 0 389.8 L 0.8 407.7 L 1.95 412 L 5.05 419.75 L 7.4 423.65 L 13.6 430.25 L 15.55 431.45 L 19.45 432.2 L 22.95 431.45 L 28.8 428.7 L 33.05 412 L 33.05 405.35 L 31.1 399.55 L 30.75 397.2 L 31.1 389.4 L 30.35 384.75 L 28.8 382.05 L 29.55 361.05 L 28.8 295.7 L 26.05 290.25 L 26.05 289.1 L 26.45 287.9 L 27.25 286.75 L 28.8 285.6 L 28.4 278.2 L 29.15 238.9 L 27.25 224.1 L 28 184.35 L 30.35 144.3 L 31.9 143.15 L 32.65 142 L 33.05 140.4 L 33.05 139.25 L 31.9 132.65 L 34.25 129.55 L 36.15 128.35 L 37.35 128 L 38.9 128 L 36.55 125.65 L 35.4 123.3 L 34.6 120.6 L 34.25 117.5 L 34.25 108.9 L 33.85 106.2"></path><path d="M 55.95 128.35 L 59.45 126.8 L 66.45 125.65 L 68.4 125.65 L 70.3 126.05 L 70.7 124.85 L 71.5 124.1 L 73.45 123.3 L 75.4 122.9 L 79.25 122.9 L 81.2 122.55 L 82 122.15 L 82.75 121.35 L 83.15 120.6 L 83.55 119.4 L 78.5 114 L 75.75 112.4 L 73.05 111.65 L 70.3 111.65 L 67.6 112.05 L 64.9 112.8 L 61.75 114.35 L 45.5 125.25 L 40.45 128 L 44.75 129.55 L 46.65 129.9 L 48.55 129.9 L 55.95 128.35"></path><path d="M 196.95 177.35 L 194.65 175.05 L 191.5 174.25 L 185.7 171.95 L 176.35 170 L 172.85 170.35 L 169.75 171.15 L 166.6 172.7 L 164.7 172.7 L 163.5 173.1 L 162.75 173.5 L 161.95 174.25 L 161.55 175.05 L 161.55 176.2 L 161.95 178.15 L 166.6 187.5 L 165.45 191.35 L 164.3 203.8 L 162.35 211.6 L 160.8 214.7 L 159.6 216.25 L 158.05 217.45 L 160 218.2 L 161.55 218.6 L 165.05 218.6 L 166.6 218.2 L 168.2 217.45 L 173.6 213.15 L 181.4 205.75 L 182.55 203.8 L 184.9 200.7 L 186.45 199.15 L 196.2 192.95 L 197.65 191.75 L 200 188.65 L 200.75 187.1 L 201.15 185.15 L 201.15 182.8 L 196.95 177.35"></path><path d="M 315.75 222.55 L 293.65 226.45 L 278.85 231.9 L 274.2 234.25 L 271.85 233.45 L 269.55 233.85 L 260.2 238.15 L 259.05 237.75 L 257.85 237.75 L 255.9 235.8 L 257.5 232.7 L 263.7 224.1 L 268.75 218.6 L 279.65 203.8 L 280.8 200.7 L 281.6 197.2 L 282 189.8 L 280.8 185.95 L 278.85 182.45 L 276.15 179.7 L 273.05 177.35 L 269.55 175.8 L 262.15 174.65 L 254.35 175.8 L 254 178.55 L 254.35 180.85 L 256.7 187.5 L 257.1 189.45 L 256.7 191.75 L 255.9 194.1 L 254.75 194.9 L 254 196.05 L 254 197.2 L 254.75 199.55 L 254.75 200.7 L 254 201.9 L 252.8 202.65 L 251.65 207.3 L 246.3 219.75 L 242 226.85 L 240.45 230.75 L 239.65 234.25 L 234.6 244.75 L 226.45 259.9 L 224.1 267.7 L 224.1 273.15 L 224.5 275.85 L 228.75 270.8 L 243.15 257.95 L 253.6 250.95 L 264.85 245.15 L 283.15 238.9 L 295.6 236.55 L 314.2 235.8 L 316.5 236.55 L 320 238.9 L 321.2 240.45 L 321.95 242 L 322.35 243.55 L 322.35 245.5 L 321.2 251.35 L 317.3 262.65 L 317.3 264.2 L 312.65 275.45 L 312.65 277.4 L 313.8 277 L 315.75 276.65 L 317.7 275.85 L 321.95 275.85 L 324.7 275.05 L 327.4 273.5 L 332.45 269.25 L 334.8 267.7 L 337.9 266.15 L 339.1 265.75 L 340.65 265.75 L 343.35 263.4 L 352.6 258.35 Q 354 257.4 355.35 256.4 L 356.1 254.85 L 356.9 253.7 L 357.65 252.15 L 357.65 248.25 L 357.3 245.9 L 355.7 242.8 L 351.85 237.75 L 344.9 231.9 L 334 226.85 L 315.75 222.55"></path><path d="M 105.25 222.55 L 98.65 227.25 L 97.15 228.8 L 96 230.75 L 95.2 232.7 L 95.2 235 L 96.75 238.15 L 97.85 239.3 L 100.6 241.25 L 103.3 242.4 L 106 240.85 L 108.35 238.9 L 109.9 236.55 L 111.1 233.85 L 113.8 225.3 L 114.95 222.55 L 114.95 222.2 L 114.6 221.7 L 111.45 221.7 L 109.9 220.95 L 105.25 222.55"></path><path d="M 119.25 260.7 L 116.15 262.25 L 88.2 270.8 L 85.5 271.95 L 80.05 275.85 L 80.05 274.3 L 76.95 274.3 L 79.65 277 L 85.9 280.5 L 89 281.7 L 96 282.45 L 102.9 282.1 L 123.55 277.8 L 126.65 277.4 L 130.15 277.4 L 132.85 295.3 L 133.25 313.95 L 131.7 325.65 L 129.35 329.9 L 127.8 331.45 L 126.25 332.65 L 118.45 335.35 L 109.15 335.75 L 100.2 337.3 L 96.4 336.55 L 94.8 335.75 L 93.65 334.95 L 92.9 333.8 L 90.55 329.15 L 89.4 325.65 L 86.25 319.4 L 85.1 318.25 L 83.55 317.45 L 81.2 316.7 L 79.25 315.5 L 74.2 310.45 L 71.9 309.7 L 71.1 309.3 L 68.4 310.1 L 66.8 310.85 L 73.45 335.75 L 69.55 349.35 L 68.75 354.05 L 68.75 358.3 L 69.55 362.6 L 71.5 366.1 L 73.05 367.65 L 77.3 369.6 L 79.25 370 L 81.6 370 L 83.15 369.6 L 87.05 368.05 L 90.55 365.7 L 103.3 354.05 L 107.2 352.85 L 120.8 346.25 L 122.75 345.85 L 124.3 345.85 L 127.8 346.65 L 129.75 347.4 L 131.7 348.95 L 130.15 354.05 L 129.75 364.9 L 130.15 381.65 L 129.75 387.1 L 128.2 392.15 L 128.6 395.65 L 127.4 405.35 L 123.55 424.8 L 123.55 431.05 L 126.25 440.35 L 128.2 443.5 L 129.75 445.05 L 130.9 445.8 L 132.45 446.6 L 139.85 446.6 L 141.4 447 L 143.35 445.05 L 144.55 443.1 L 145.3 441.15 L 145.7 438.8 L 144.9 420.95 L 145.3 418.6 L 146.85 414.3 L 148.35 412 L 146.1 402.65 L 144.9 393.3 L 144.15 374.65 L 146.45 337.3 L 148.75 333.4 L 150.3 331.85 L 151.85 330.7 L 155.35 328.75 L 159.6 327.2 L 172.45 324.1 L 176.35 322.15 L 179.05 323.7 L 182.2 327.2 L 182.95 329.15 L 183.35 331.45 L 183.35 333.8 L 180.25 352.45 L 180.25 355.2 L 180.6 357.9 L 181.4 360.65 L 182.2 359.85 L 184.9 359.85 L 186.45 359.45 L 187.25 359.45 L 188 358.7 L 191.1 348.6 L 194.65 332.65 L 198.45 322.9 L 201.15 319 L 200.4 317.1 L 200 315.15 L 200 313.6 L 200.4 311.65 L 201.55 308.15 L 207 297.25 L 208.15 291 L 207.75 289.1 L 206.6 286.35 L 204.65 284 L 200 280.5 L 189.55 275.85 L 188.4 275.85 L 187.25 276.25 L 186.05 277 L 185.3 277.8 L 184.5 278.95 L 184.5 281.3 L 186.45 289.1 L 186.45 296.1 L 184.9 310.85 L 181 313.95 L 172.45 317.45 L 154.2 321.75 L 149.9 324.1 L 147.15 317.85 L 146.1 314.35 L 145.7 310.85 L 144.9 288.3 L 143.75 281.3 L 142.6 277.8 L 139.1 271.55 L 136.75 269.25 L 145.3 263 L 167 252.15 L 171.3 249 L 173.25 248.25 L 174.8 247.05 L 178.7 245.5 L 190.75 242.4 L 194.25 240.45 L 197.25 238.15 L 199.6 234.25 L 196.55 232.7 L 193.05 232.3 L 185.7 232.7 L 171.3 235.8 L 166.25 238.9 L 150.3 246.3 L 128.2 254.05 L 125.45 256.8 L 119.25 260.7"></path><path d="M 254.35 295.7 L 255.15 297.65 L 255.9 301.9 L 255.15 314.35 L 254.35 318.25 L 254.35 322.15 L 254 323.3 L 251.65 326.8 L 250.5 327.95 L 250.1 329.15 L 250.1 330.7 L 250.85 332.25 L 247.35 336.9 L 239.65 351.3 L 215.95 386.7 L 209.7 398.75 L 208.15 400.7 L 200.75 407.3 L 199.2 409.25 L 198.45 411.2 L 198.05 413.55 L 209.7 405.35 L 229.55 393.3 L 232.65 392.15 L 261 359.1 L 273.4 342.75 L 285.1 322.5 L 285.5 320.95 L 285.5 318.25 L 284.7 315.5 L 279.65 305.4 L 279.25 302.3 L 277.7 298.4 L 275 294.9 L 273.4 293.35 L 267.6 290.25 L 263.3 289.1 L 259.05 288.7 L 252.8 289.85 L 250.85 290.65 L 252.4 292.2 L 254.35 295.7"></path><path d="M 331.3 366.45 L 317.7 360.25 L 308.35 357.55 L 298.65 355.95 L 289.35 355.6 L 288.2 356.35 L 287.8 357.15 L 287.8 357.9 L 289.35 360.65 L 290.95 362.2 L 296.75 366.85 L 305.65 378.9 L 310.3 382.8 L 312.65 384 L 313 386.7 L 314.2 389.4 L 321.55 398.35 L 323.15 400.7 L 323.9 403.8 L 327 405 L 336.75 410.05 L 343.35 412 L 345.3 412 L 348.7 411.2 L 350.65 410.4 L 355.7 400.3 L 356.5 398 L 356.5 392.9 L 355.7 390.6 L 353 386.3 L 343.35 375.05 L 331.3 366.45"></path></g></g></svg>